<svg width="49" height="50" viewBox="0 0 49 50" fill="none" xmlns="http://www.w3.org/2000/svg">
<path d="M46.875 50H23.9583C23.3833 50 22.9166 49.5333 22.9166 48.9583V26.0417C22.9166 25.4667 23.3833 25 23.9583 25H46.875C47.45 25 47.9166 25.4667 47.9166 26.0417V48.9583C47.9166 49.5333 47.45 50 46.875 50ZM25 47.9167H45.8333V27.0833H25V47.9167Z" fill="#3A98B2"/>
<path d="M35.4167 27.0833H12.5C11.925 27.0833 11.4584 26.6166 11.4584 26.0416V3.12492C11.4584 2.54992 11.925 2.08325 12.5 2.08325H35.4167C35.9917 2.08325 36.4584 2.54992 36.4584 3.12492V26.0416C36.4584 26.6166 35.9917 27.0833 35.4167 27.0833ZM13.5417 24.9999H34.375V4.16659H13.5417V24.9999Z" fill="#3A98B2"/>
<path d="M27.0833 12.4999H20.8333C20.2583 12.4999 19.7916 12.0333 19.7916 11.4583V3.12492C19.7916 2.54992 20.2583 2.08325 20.8333 2.08325H27.0833C27.6583 2.08325 28.125 2.54992 28.125 3.12492V11.4583C28.125 12.0333 27.6583 12.4999 27.0833 12.4999ZM21.875 10.4166H26.0416V4.16659H21.875V10.4166Z" fill="#3A98B2"/>
<path d="M38.5417 35.4167H32.2917C31.7167 35.4167 31.25 34.95 31.25 34.375V26.0417C31.25 25.4667 31.7167 25 32.2917 25H38.5417C39.1167 25 39.5833 25.4667 39.5833 26.0417V34.375C39.5833 34.95 39.1167 35.4167 38.5417 35.4167ZM33.3333 33.3333H37.5V27.0833H33.3333V33.3333Z" fill="#3A98B2"/>
<path d="M23.9583 50H1.04167C0.466667 50 0 49.5333 0 48.9583V26.0417C0 25.4667 0.466667 25 1.04167 25H23.9583C24.5333 25 25 25.4667 25 26.0417V48.9583C25 49.5333 24.5333 50 23.9583 50ZM2.08333 47.9167H22.9167V27.0833H2.08333V47.9167Z" fill="#3A98B2"/>
<path d="M15.625 35.4167H9.37504C8.80004 35.4167 8.33337 34.95 8.33337 34.375V26.0417C8.33337 25.4667 8.80004 25 9.37504 25H15.625C16.2 25 16.6667 25.4667 16.6667 26.0417V34.375C16.6667 34.95 16.2 35.4167 15.625 35.4167ZM10.4167 33.3333H14.5834V27.0833H10.4167V33.3333Z" fill="#3A98B2"/>
</svg>
